STARTFONT 2.1
FONT -Bitstream-Terminal-Medium-R-Normal--36-280-100-100-C-220-DEC-DECtech
SIZE 28 100 100
FONTBOUNDINGBOX 22 41 0 -10

STARTPROPERTIES 24
FOUNDRY "Bitstream"
FAMILY_NAME "Terminal"
WEIGHT_NAME "Medium"
SLANT "R"
SETWIDTH_NAME "Normal"
ADD_STYLE_NAME ""
PIXEL_SIZE 36
POINT_SIZE 280
RESOLUTION_X 100
RESOLUTION_Y 100
SPACING "C"
AVERAGE_WIDTH 220
CHARSET_REGISTRY "DEC"
CHARSET_ENCODING "DECtech"
CAP_HEIGHT 22
COPYRIGHT "Copyright (c) 1991 Digital Equipment Corporation. All Rights Reserved."
_DEC_PRODUCTINFO "DECterm Fonts V2.2, 11-Nov-1991"
FULL_NAME "Terminal"
WEIGHT 10
X_HEIGHT -5
QUAD_WIDTH 22
DEFAULT_CHAR 159
FONT_DESCENT 10
FONT_ASCENT 30
ENDPROPERTIES

CHARS 182

STARTCHAR space
ENCODING 32
SWIDTH 565 0
DWIDTH 22 0
BBX 1 1 0 0
BITMAP
00
ENDCHAR

STARTCHAR exclam
ENCODING 33
SWIDTH 565 0
DWIDTH 22 0
BBX 6 22 8 0
BITMAP
78
78
78
78
78
78
78
78
78
78
78
78
78
78
00
00
78
FC
FC
FC
FC
78
ENDCHAR

STARTCHAR quotedbl
ENCODING 34
SWIDTH 565 0
DWIDTH 22 0
BBX 12 10 5 16
BITMAP
F0F0
F0F0
F0F0
F0F0
F0F0
F0F0
F0F0
F0F0
F0F0
F0F0
ENDCHAR

STARTCHAR numbersign
ENCODING 35
SWIDTH 565 0
DWIDTH 22 0
BBX 21 28 1 -6
BITMAP
0F0780
0F0780
0F0780
0F0780
0F0780
0F0780
0F0780
0F0780
0F0780
0F0780
FFFFF8
FFFFF8
0F0780
0F0780
0F0780
0F0780
FFFFF8
FFFFF8
0F0780
0F0780
0F0780
0F0780
0F0780
0F0780
0F0780
0F0780
0F0780
0F0780
ENDCHAR

STARTCHAR dollar
ENCODING 36
SWIDTH 565 0
DWIDTH 22 0
BBX 16 32 3 -6
BITMAP
00C0
00C0
00C0
00C0
0FCF
3FEF
7C7F
781F
F00F
F00F
F000
F800
7E00
7FC0
1FF8
03FE
007E
001F
000F
000F
F00F
F00F
F81E
FC3E
F7FC
F3F0
0300
0300
0300
0300
0300
0300
ENDCHAR

STARTCHAR percent
ENCODING 37
SWIDTH 565 0
DWIDTH 22 0
BBX 18 22 2 0
BITMAP
3E0000
7F0000
E38000
C18000
C18000
C18000
C18000
E38700
7F1F00
3E3C00
00F000
03C000
0F1F00
3E3F80
3871C0
0060C0
0060C0
0060C0
0060C0
0071C0
003F80
001F00
ENDCHAR

STARTCHAR ampersand
ENCODING 38
SWIDTH 565 0
DWIDTH 22 0
BBX 14 22 4 0
BITMAP
0FB0
1FB0
3C70
3870
3800
3800
3800
3800
1C00
1C00
7E3C
7E3C
F730
E730
E3B0
E3B0
E1F0
E1F0
E0F0
F0F0
7FBC
3F3C
ENDCHAR

STARTCHAR quoteright
ENCODING 39
SWIDTH 565 0
DWIDTH 22 0
BBX 7 10 7 16
BITMAP
3E
3E
3C
7C
78
78
F0
F0
60
60
ENDCHAR

STARTCHAR parenleft
ENCODING 40
SWIDTH 565 0
DWIDTH 22 0
BBX 8 30 7 -6
BITMAP
03
07
06
0E
1C
1C
38
38
78
78
70
F0
F0
F0
F0
F0
F0
F0
F0
70
78
78
38
38
1C
1C
0E
0E
07
03
ENDCHAR

STARTCHAR parenright
ENCODING 41
SWIDTH 565 0
DWIDTH 22 0
BBX 8 30 7 -6
BITMAP
C0
E0
70
70
38
38
1C
1C
1E
1E
0E
0F
0F
0F
0F
0F
0F
0F
0F
0E
1E
1E
1C
1C
38
38
70
70
E0
C0
ENDCHAR

STARTCHAR asterisk
ENCODING 42
SWIDTH 565 0
DWIDTH 22 0
BBX 16 16 3 2
BITMAP
03C0
03C0
03C0
03C0
F3CF
F3CF
3FFC
3FFC
0FF0
0FF0
0FF0
0E70
1C38
3C3C
381C
381C
ENDCHAR

STARTCHAR plus
ENCODING 43
SWIDTH 565 0
DWIDTH 22 0
BBX 16 20 3 0
BITMAP
03C0
03C0
03C0
03C0
03C0
03C0
03C0
03C0
FFFF
FFFF
FFFF
FFFF
03C0
03C0
03C0
03C0
03C0
03C0
03C0
03C0
ENDCHAR

STARTCHAR comma
ENCODING 44
SWIDTH 565 0
DWIDTH 22 0
BBX 7 12 7 -6
BITMAP
3E
3E
3C
3C
78
78
78
70
F0
F0
60
60
ENDCHAR

STARTCHAR minus
ENCODING 45
SWIDTH 565 0
DWIDTH 22 0
BBX 18 4 2 8
BITMAP
FFFFC0
FFFFC0
FFFFC0
FFFFC0
ENDCHAR

STARTCHAR period
ENCODING 46
SWIDTH 565 0
DWIDTH 22 0
BBX 6 6 8 0
BITMAP
78
FC
FC
FC
FC
78
ENDCHAR

STARTCHAR slash
ENCODING 47
SWIDTH 565 0
DWIDTH 22 0
BBX 17 26 3 -2
BITMAP
000380
000780
000700
000F00
000E00
001C00
001C00
003800
007800
007000
00F000
00E000
01C000
01C000
038000
078000
070000
0F0000
0E0000
1E0000
1C0000
380000
380000
700000
F00000
E00000
ENDCHAR

STARTCHAR zero
ENCODING 48
SWIDTH 565 0
DWIDTH 22 0
BBX 16 22 3 0
BITMAP
07E0
1FF8
3E7C
3C3C
781E
781E
781E
F00F
F00F
F00F
F00F
F00F
F00F
F00F
F00F
781E
781E
781E
3C3C
3E7C
1FF8
07E0
ENDCHAR

STARTCHAR one
ENCODING 49
SWIDTH 565 0
DWIDTH 22 0
BBX 14 22 4 0
BITMAP
0780
1F80
3F80
F780
C780
0780
0780
0780
0780
0780
0780
0780
0780
0780
0780
0780
0780
0780
0780
0780
FFFC
FFFC
ENDCHAR

STARTCHAR two
ENCODING 50
SWIDTH 565 0
DWIDTH 22 0
BBX 15 22 3 0
BITMAP
1FF0
7FFC
787C
F03E
F01E
F01E
001E
001E
003C
003C
0078
00F8
01F0
03E0
03C0
0780
0F00
1E00
3C1E
7C1E
FFFE
FFFE
ENDCHAR

STARTCHAR three
ENCODING 51
SWIDTH 565 0
DWIDTH 22 0
BBX 15 22 3 0
BITMAP
1FF0
7FFC
F83C
F01E
001E
001E
001E
001E
001C
003C
07F0
07F8
003C
001E
001E
001E
001E
001E
F01E
F83C
7FFC
1FF0
ENDCHAR

STARTCHAR four
ENCODING 52
SWIDTH 565 0
DWIDTH 22 0
BBX 15 22 3 0
BITMAP
01F8
01F8
03F8
03F8
0778
0778
0E78
0E78
1C78
1C78
3878
3878
7078
7078
FFFE
FFFE
0078
0078
0078
0078
01FE
01FE
ENDCHAR

STARTCHAR five
ENCODING 53
SWIDTH 565 0
DWIDTH 22 0
BBX 15 22 3 0
BITMAP
FFF8
FFF8
F000
F000
F000
F000
F000
F000
FFE0
FFF8
F07C
E03C
001E
001E
001E
001E
001E
001E
F03C
F87C
7FF8
1FE0
ENDCHAR

STARTCHAR six
ENCODING 54
SWIDTH 565 0
DWIDTH 22 0
BBX 15 22 3 0
BITMAP
01F8
07F8
0F00
1E00
3C00
3800
7800
7000
71F0
F7F8
FE3C
F81C
F01E
F01E
F01E
F01E
F01E
F01E
781C
7C3C
3FF8
0FE0
ENDCHAR

STARTCHAR seven
ENCODING 55
SWIDTH 565 0
DWIDTH 22 0
BBX 15 22 3 0
BITMAP
FFFE
FFFE
F01E
F01E
001C
003C
003C
0038
0078
0078
0070
00F0
00F0
00E0
01E0
01E0
01C0
03C0
03C0
0380
0780
0780
ENDCHAR

STARTCHAR eight
ENCODING 56
SWIDTH 565 0
DWIDTH 22 0
BBX 15 22 3 0
BITMAP
0FE0
3FF8
7C7C
783C
F01E
F01E
F01E
F01E
783C
7C7C
1FF0
3FF8
7C7C
783C
F01E
F01E
F01E
F01E
783C
7C7C
3FF8
0FE0
ENDCHAR

STARTCHAR nine
ENCODING 57
SWIDTH 565 0
DWIDTH 22 0
BBX 15 22 3 0
BITMAP
0FE0
3FF8
787C
703C
F01E
F01E
F01E
F01E
F01E
F01E
703E
78FE
3FDE
1F1C
001C
003C
0038
0078
00F0
03E0
3FC0
3F00
ENDCHAR

STARTCHAR colon
ENCODING 58
SWIDTH 565 0
DWIDTH 22 0
BBX 6 18 8 0
BITMAP
78
FC
FC
FC
FC
78
00
00
00
00
00
00
78
FC
FC
FC
FC
78
ENDCHAR

STARTCHAR semicolon
ENCODING 59
SWIDTH 565 0
DWIDTH 22 0
BBX 8 24 7 -6
BITMAP
1E
3F
3F
3F
3F
1E
00
00
00
00
00
00
3E
3E
3C
3C
78
78
78
70
F0
F0
60
60
ENDCHAR

STARTCHAR less
ENCODING 60
SWIDTH 565 0
DWIDTH 22 0
BBX 17 18 2 2
BITMAP
000180
000780
001F80
007F80
01FE00
07F800
1FE000
7F8000
FE0000
FE0000
7F8000
1FE000
07F800
01FE00
007F80
001F80
000780
000180
ENDCHAR

STARTCHAR equal
ENCODING 61
SWIDTH 565 0
DWIDTH 22 0
BBX 16 12 3 4
BITMAP
FFFF
FFFF
FFFF
FFFF
0000
0000
0000
0000
FFFF
FFFF
FFFF
FFFF
ENDCHAR

STARTCHAR greater
ENCODING 62
SWIDTH 565 0
DWIDTH 22 0
BBX 17 18 2 2
BITMAP
C00000
F00000
FC0000
FF0000
3FC000
0FF000
03FC00
00FF00
003F80
003F80
00FF00
03FC00
0FF000
3FC000
FF0000
FC0000
F00000
C00000
ENDCHAR

STARTCHAR question
ENCODING 63
SWIDTH 565 0
DWIDTH 22 0
BBX 16 22 3 0
BITMAP
0FF0
3FFC
FFFE
F01F
F00F
000F
001F
003E
00FC
03F8
07E0
0F80
0F00
0F00
0000
0000
0F00
1F80
1F80
1F80
1F80
0F00
ENDCHAR

STARTCHAR at
ENCODING 64
SWIDTH 565 0
DWIDTH 22 0
BBX 20 28 1 -4
BITMAP
07FC00
1FFF00
3E0F80
780380
7803C0
7003C0
F003C0
F003C0
F03FC0
F0FFC0
F1E3C0
F1C3C0
F3C3C0
F3C3C0
F3C3C0
F3C3C0
F3C3C0
F1E3C0
F1FFF0
F0FFF0
F00000
F00000
780000
780000
7C01C0
3F07C0
1FFF00
07FC00
ENDCHAR

STARTCHAR A
ENCODING 65
SWIDTH 565 0
DWIDTH 22 0
BBX 22 22 0 0
BITMAP
00FC00
00FC00
01FE00
01FE00
01CE00
03CF00
03CF00
03CF00
078780
078780
078780
0F03C0
0F03C0
0F03C0
1FFFE0
1FFFE0
1E01E0
3C00F0
3C00F0
3C00F0
FF87FC
FF87FC
ENDCHAR

STARTCHAR B
ENCODING 66
SWIDTH 565 0
DWIDTH 22 0
BBX 18 22 2 0
BITMAP
FFFC00
FFFE00
3C1F00
3C0F00
3C0F00
3C0F00
3C0F00
3C0F00
3C0E00
3C1C00
3FFF00
3FFF80
3C07C0
3C03C0
3C03C0
3C03C0
3C03C0
3C03C0
3C03C0
3C07C0
FFFF80
FFFF00
ENDCHAR

STARTCHAR C
ENCODING 67
SWIDTH 565 0
DWIDTH 22 0
BBX 18 22 2 0
BITMAP
03F8C0
0FFEC0
3F0FC0
3C03C0
7803C0
7801C0
7001C0
F001C0
F00000
F00000
F00000
F00000
F00000
F00000
F00000
700000
780000
7800C0
3C01C0
3F0780
0FFF00
03FC00
ENDCHAR

STARTCHAR D
ENCODING 68
SWIDTH 565 0
DWIDTH 22 0
BBX 18 22 2 0
BITMAP
FFF000
FFFC00
3C3F00
3C0F00
3C0780
3C0780
3C03C0
3C03C0
3C03C0
3C03C0
3C03C0
3C03C0
3C03C0
3C03C0
3C03C0
3C03C0
3C0780
3C0780
3C0F00
3C3F00
FFFC00
FFF000
ENDCHAR

STARTCHAR E
ENCODING 69
SWIDTH 565 0
DWIDTH 22 0
BBX 18 22 2 0
BITMAP
FFFFC0
FFFFC0
0F00C0
0F00C0
0F00C0
0F00C0
0F0000
0F0C00
0F0C00
0F0C00
0FFC00
0FFC00
0F0C00
0F0C00
0F0CC0
0F00C0
0F00C0
0F00C0
0F00C0
0F00C0
FFFFC0
FFFFC0
ENDCHAR

STARTCHAR F
ENCODING 70
SWIDTH 565 0
DWIDTH 22 0
BBX 18 22 2 0
BITMAP
FFFFC0
FFFFC0
0F00C0
0F00C0
0F00C0
0F00C0
0F0000
0F0C00
0F0C00
0F0C00
0FFC00
0FFC00
0F0C00
0F0C00
0F0C00
0F0000
0F0000
0F0000
0F0000
0F0000
FFF000
FFF000
ENDCHAR

STARTCHAR G
ENCODING 71
SWIDTH 565 0
DWIDTH 22 0
BBX 20 22 1 0
BITMAP
03F8C0
0FFEC0
3F0FC0
3C03C0
7803C0
7801C0
7001C0
F001C0
F00000
F00000
F00000
F00000
F03FF0
F03FF0
F003C0
7003C0
7803C0
7803C0
3C03C0
3F03C0
0FFF80
03FF00
ENDCHAR

STARTCHAR H
ENCODING 72
SWIDTH 565 0
DWIDTH 22 0
BBX 18 22 2 0
BITMAP
FF3FC0
FF3FC0
3C0F00
3C0F00
3C0F00
3C0F00
3C0F00
3C0F00
3C0F00
3C0F00
3FFF00
3FFF00
3C0F00
3C0F00
3C0F00
3C0F00
3C0F00
3C0F00
3C0F00
3C0F00
FF3FC0
FF3FC0
ENDCHAR

STARTCHAR I
ENCODING 73
SWIDTH 565 0
DWIDTH 22 0
BBX 16 22 3 0
BITMAP
FFFF
FFFF
03C0
03C0
03C0
03C0
03C0
03C0
03C0
03C0
03C0
03C0
03C0
03C0
03C0
03C0
03C0
03C0
03C0
03C0
FFFF
FFFF
ENDCHAR

STARTCHAR J
ENCODING 74
SWIDTH 565 0
DWIDTH 22 0
BBX 18 22 2 0
BITMAP
0FFFC0
0FFFC0
003C00
003C00
003C00
003C00
003C00
003C00
003C00
003C00
003C00
003C00
003C00
C03C00
C03C00
C03C00
E03C00
E03C00
F03C00
783C00
7FF800
1FF000
ENDCHAR

STARTCHAR K
ENCODING 75
SWIDTH 565 0
DWIDTH 22 0
BBX 18 22 2 0
BITMAP
FF3FC0
FF3FC0
3C0F00
3C0F00
3C3C00
3C3C00
3CF000
3CF000
3FE000
3FE000
3FF000
3FF000
3C7800
3C7800
3C3C00
3C3C00
3C1E00
3C1E00
3C0F00
3C0F00
FF0FC0
FF0FC0
ENDCHAR

STARTCHAR L
ENCODING 76
SWIDTH 565 0
DWIDTH 22 0
BBX 18 22 2 0
BITMAP
FFF000
FFF000
0F0000
0F0000
0F0000
0F0000
0F0000
0F0000
0F0000
0F0000
0F0000
0F0000
0F0000
0F0000
0F00C0
0F00C0
0F00C0
0F00C0
0F00C0
0F00C0
FFFFC0
FFFFC0
ENDCHAR

STARTCHAR M
ENCODING 77
SWIDTH 565 0
DWIDTH 22 0
BBX 22 22 0 0
BITMAP
FF03FC
FF03FC
3F87F0
3F87F0
3D86F0
3D86F0
3DCEF0
3CCCF0
3CCCF0
3CCCF0
3CFCF0
3C78F0
3C78F0
3C78F0
3C30F0
3C30F0
3C30F0
3C30F0
3C00F0
3C00F0
FF03FC
FF03FC
ENDCHAR

STARTCHAR N
ENCODING 78
SWIDTH 565 0
DWIDTH 22 0
BBX 20 22 1 0
BITMAP
FE0FF0
FE0FF0
3F03C0
3F03C0
3D83C0
3D83C0
3CC3C0
3CC3C0
3CC3C0
3C63C0
3C63C0
3C33C0
3C33C0
3C33C0
3C1BC0
3C1BC0
3C0FC0
3C0FC0
3C07C0
3C07C0
FFC3C0
FFC3C0
ENDCHAR

STARTCHAR O
ENCODING 79
SWIDTH 565 0
DWIDTH 22 0
BBX 18 22 2 0
BITMAP
07F800
0FFC00
3E1F00
3C0F00
780780
780780
780780
F003C0
F003C0
F003C0
F003C0
F003C0
F003C0
F003C0
F003C0
780780
780780
780780
3C0F00
3E1F00
0FFC00
07F800
ENDCHAR

STARTCHAR P
ENCODING 80
SWIDTH 565 0
DWIDTH 22 0
BBX 18 22 1 0
BITMAP
FFFE00
FFFF80
0F0780
0F03C0
0F03C0
0F03C0
0F03C0
0F03C0
0F03C0
0F03C0
0F03C0
0F0780
0FFF80
0FFE00
0F0000
0F0000
0F0000
0F0000
0F0000
0F0000
FFF800
FFF800
ENDCHAR

STARTCHAR Q
ENCODING 81
SWIDTH 565 0
DWIDTH 22 0
BBX 20 28 2 -6
BITMAP
07F800
0FFC00
3E1F00
3C0F00
780780
780780
780780
F003C0
F003C0
F003C0
F003C0
F003C0
F003C0
F003C0
F003C0
780780
780780
780780
3C0F00
3E1F00
0FFC00
07F800
030000
030000
07F030
07FCF0
0F3FE0
0E0FC0
ENDCHAR

STARTCHAR R
ENCODING 82
SWIDTH 565 0
DWIDTH 22 0
BBX 20 22 1 0
BITMAP
FFFF00
FFFF80
3C07C0
3C03C0
3C03C0
3C03C0
3C03C0
3C03C0
3C0780
3C1F00
3FFC00
3FFC00
3C1E00
3C1E00
3C0F00
3C0F00
3C0780
3C0780
3C03C0
3C03C0
FF01F0
FF01F0
ENDCHAR

STARTCHAR S
ENCODING 83
SWIDTH 565 0
DWIDTH 22 0
BBX 16 22 3 0
BITMAP
0FCF
3FEF
7C7F
781F
F00F
F00F
F000
F800
7E00
7FC0
1FF8
03FE
007E
001F
000F
000F
F00F
F00F
F81E
FC3E
F7FC
F3F0
ENDCHAR

STARTCHAR T
ENCODING 84
SWIDTH 565 0
DWIDTH 22 0
BBX 20 22 1 0
BITMAP
FFFFF0
FFFFF0
C0F030
C0F030
C0F030
C0F030
C0F030
C0F030
00F000
00F000
00F000
00F000
00F000
00F000
00F000
00F000
00F000
00F000
00F000
00F000
0FFF00
0FFF00
ENDCHAR

STARTCHAR U
ENCODING 85
SWIDTH 565 0
DWIDTH 22 0
BBX 20 22 1 0
BITMAP
FF0FF0
FF0FF0
3C03C0
3C03C0
3C03C0
3C03C0
3C03C0
3C03C0
3C03C0
3C03C0
3C03C0
3C03C0
3C03C0
3C03C0
3C03C0
3C03C0
3C03C0
3C03C0
1C0380
1E0780
0FFF00
07FE00
ENDCHAR

STARTCHAR V
ENCODING 86
SWIDTH 565 0
DWIDTH 22 0
BBX 22 22 0 0
BITMAP
FF03FC
FF03FC
3C00F0
3C00F0
1E01E0
1E01E0
0E01C0
0F03C0
0F0380
070380
078780
078700
038700
03CF00
01CE00
01CE00
00FC00
00FC00
007800
007800
003000
003000
ENDCHAR

STARTCHAR W
ENCODING 87
SWIDTH 565 0
DWIDTH 22 0
BBX 22 22 0 0
BITMAP
FF87FC
FF87FC
3C00F0
3C00F0
3C00F0
3C00F0
3C30F0
3C30F0
3C30F0
3C30F0
1C78E0
1C78E0
1CFCE0
1CFCE0
1DCEE0
1DCEE0
1F87E0
1F87E0
0F03C0
0F03C0
0E01C0
0E01C0
ENDCHAR

STARTCHAR X
ENCODING 88
SWIDTH 565 0
DWIDTH 22 0
BBX 18 22 2 0
BITMAP
FF3FC0
FF3FC0
3C0F00
3C0F00
1E1E00
1E1E00
0F3C00
0F3C00
07F800
07F800
03F000
03F000
07F800
07F800
0F3C00
0F3C00
1E1E00
1E1E00
3C0F00
3C0F00
FF3FC0
FF3FC0
ENDCHAR

STARTCHAR Y
ENCODING 89
SWIDTH 565 0
DWIDTH 22 0
BBX 20 22 1 0
BITMAP
FF0FF0
FF0FF0
3C03C0
3C03C0
1E0780
1E0780
0F0F00
0F0F00
079E00
079E00
03FC00
03FC00
01F800
01F800
00F000
00F000
00F000
00F000
00F000
00F000
0FFF00
0FFF00
ENDCHAR

STARTCHAR Z
ENCODING 90
SWIDTH 565 0
DWIDTH 22 0
BBX 16 22 3 0
BITMAP
7FFF
7FFF
601F
601E
603E
607C
0078
00F8
00F0
01F0
03E0
03C0
07C0
0F80
0F00
1F00
3E03
3C03
7C03
F803
FFFF
FFFF
ENDCHAR

STARTCHAR bracketleft
ENCODING 91
SWIDTH 565 0
DWIDTH 22 0
BBX 8 27 7 -3
BITMAP
FF
FF
F0
F0
F0
F0
F0
F0
F0
F0
F0
F0
F0
F0
F0
F0
F0
F0
F0
F0
F0
F0
F0
F0
F0
FF
FF
ENDCHAR

STARTCHAR backslash
ENCODING 92
SWIDTH 565 0
DWIDTH 22 0
BBX 17 26 2 -2
BITMAP
E00000
F00000
700000
780000
380000
1C0000
1C0000
0E0000
0F0000
070000
078000
038000
01C000
01C000
00E000
00F000
007000
007800
003800
003C00
001C00
000E00
000E00
000700
000780
000380
ENDCHAR

STARTCHAR bracketright
ENCODING 93
SWIDTH 565 0
DWIDTH 22 0
BBX 8 27 7 -3
BITMAP
FF
FF
0F
0F
0F
0F
0F
0F
0F
0F
0F
0F
0F
0F
0F
0F
0F
0F
0F
0F
0F
0F
0F
0F
0F
FF
FF
ENDCHAR

STARTCHAR asciicircum
ENCODING 94
SWIDTH 565 0
DWIDTH 22 0
BBX 14 8 4 10
BITMAP
0300
0780
0FC0
1FE0
3CF0
7878
F03C
E01C
ENDCHAR

STARTCHAR ldblank
ENCODING 95
SWIDTH 565 0
DWIDTH 22 0
BBX 1 1 0 0
BITMAP
00
ENDCHAR

STARTCHAR diamond
ENCODING 96
SWIDTH 565 0
DWIDTH 22 0
BBX 18 22 2 0
BITMAP
00C000
00C000
03F000
03F000
07F800
07F800
1FFE00
1FFE00
3FFF00
3FFF00
FFFFC0
FFFFC0
3FFF00
3FFF00
1FFE00
1FFE00
07F800
07F800
03F000
03F000
00C000
00C000
ENDCHAR

STARTCHAR checkerboard
ENCODING 97
SWIDTH 565 0
DWIDTH 22 0
BBX 22 40 0 -9
BITMAP
555554
AAAAA8
555554
AAAAA8
555554
AAAAA8
555554
AAAAA8
555554
AAAAA8
555554
AAAAA8
555554
AAAAA8
555554
AAAAA8
555554
AAAAA8
555554
AAAAA8
555554
AAAAA8
555554
AAAAA8
555554
AAAAA8
555554
AAAAA8
555554
AAAAA8
555554
AAAAA8
555554
AAAAA8
555554
AAAAA8
555554
AAAAA8
555554
AAAAA8
ENDCHAR

STARTCHAR HT
ENCODING 98
SWIDTH 565 0
DWIDTH 22 0
BBX 21 26 1 -2
BITMAP
F0F000
F0F000
F0F000
F0F000
FFF000
FFF000
F0F000
F0F000
F0F000
F0F000
F0F000
F0F000
000000
000000
001FF8
001FF8
0003C0
0003C0
0003C0
0003C0
0003C0
0003C0
0003C0
0003C0
0003C0
0003C0
ENDCHAR

STARTCHAR FF
ENCODING 99
SWIDTH 565 0
DWIDTH 22 0
BBX 20 26 1 -2
BITMAP
FFC000
FFC000
F00000
F00000
F00000
F00000
FF0000
FF0000
F00000
F00000
F00000
F00000
000000
000000
003FF0
003FF0
003C00
003C00
003C00
003C00
003FC0
003FC0
003C00
003C00
003C00
003C00
ENDCHAR

STARTCHAR CR
ENCODING 100
SWIDTH 565 0
DWIDTH 22 0
BBX 20 26 1 -2
BITMAP
1F0000
7F8000
70C000
F0C000
F00000
F00000
F00000
F00000
F0C000
70C000
7F8000
1F0000
000000
000000
003FC0
003FE0
003C70
003C30
003C30
003C70
003FE0
003FC0
003CE0
003C60
003C70
003C30
ENDCHAR

STARTCHAR LF
ENCODING 101
SWIDTH 565 0
DWIDTH 22 0
BBX 20 26 1 -2
BITMAP
F00000
F00000
F00000
F00000
F00000
F00000
F00000
F00000
F00000
F00000
FFC000
FFC000
000000
000000
003FF0
003FF0
003C00
003C00
003C00
003C00
003FC0
003FC0
003C00
003C00
003C00
003C00
ENDCHAR

STARTCHAR degree
ENCODING 102
SWIDTH 565 0
DWIDTH 22 0
BBX 11 10 5 14
BITMAP
3F80
7FC0
F1E0
E0E0
E0E0
E0E0
E0E0
F1E0
7FC0
3F80
ENDCHAR

STARTCHAR plusminus
ENCODING 103
SWIDTH 565 0
DWIDTH 22 0
BBX 16 22 3 0
BITMAP
03C0
03C0
03C0
03C0
03C0
03C0
FFFF
FFFF
FFFF
FFFF
03C0
03C0
03C0
03C0
03C0
03C0
0000
0000
FFFF
FFFF
FFFF
FFFF
ENDCHAR

STARTCHAR NL
ENCODING 104
SWIDTH 565 0
DWIDTH 22 0
BBX 20 26 1 -2
BITMAP
F0F000
F0F000
F8F000
FCF000
FEF000
F7F000
F3F000
F1F000
F0F000
F0F000
F0F000
F0F000
000000
000000
000F00
000F00
000F00
000F00
000F00
000F00
000F00
000F00
000F00
000F00
000FF0
000FF0
ENDCHAR

STARTCHAR VT
ENCODING 105
SWIDTH 565 0
DWIDTH 22 0
BBX 21 26 1 -2
BITMAP
F0F000
F0F000
F0F000
F0F000
F0F000
F0F000
79E000
79E000
3FC000
1F8000
1F8000
0F0000
000000
000000
001FF8
001FF8
0003C0
0003C0
0003C0
0003C0
0003C0
0003C0
0003C0
0003C0
0003C0
0003C0
ENDCHAR

STARTCHAR ldcornsqlr
ENCODING 106
SWIDTH 565 0
DWIDTH 22 0
BBX 13 22 0 8
BITMAP
0078
0078
0078
0078
0078
0078
0078
0078
0078
0078
0078
0078
0078
0078
0078
0078
0078
0078
FFF8
FFF8
FFF8
FFF8
ENDCHAR

STARTCHAR ldcornsqur
ENCODING 107
SWIDTH 565 0
DWIDTH 22 0
BBX 13 22 0 -10
BITMAP
FFF8
FFF8
FFF8
FFF8
0078
0078
0078
0078
0078
0078
0078
0078
0078
0078
0078
0078
0078
0078
0078
0078
0078
0078
ENDCHAR

STARTCHAR ldcornsqul
ENCODING 108
SWIDTH 565 0
DWIDTH 22 0
BBX 13 22 9 -10
BITMAP
FFF8
FFF8
FFF8
FFF8
F000
F000
F000
F000
F000
F000
F000
F000
F000
F000
F000
F000
F000
F000
F000
F000
F000
F000
ENDCHAR

STARTCHAR ldcornsqll
ENCODING 109
SWIDTH 565 0
DWIDTH 22 0
BBX 13 22 9 8
BITMAP
F000
F000
F000
F000
F000
F000
F000
F000
F000
F000
F000
F000
F000
F000
F000
F000
F000
F000
FFF8
FFF8
FFF8
FFF8
ENDCHAR

STARTCHAR ldcross
ENCODING 110
SWIDTH 565 0
DWIDTH 22 0
BBX 22 40 0 -10
BITMAP
007800
007800
007800
007800
007800
007800
007800
007800
007800
007800
007800
007800
007800
007800
007800
007800
007800
007800
FFFFFC
FFFFFC
FFFFFC
FFFFFC
007800
007800
007800
007800
007800
007800
007800
007800
007800
007800
007800
007800
007800
007800
007800
007800
007800
007800
ENDCHAR

STARTCHAR ldscan1
ENCODING 111
SWIDTH 565 0
DWIDTH 22 0
BBX 22 4 0 22
BITMAP
FFFFFC
FFFFFC
FFFFFC
FFFFFC
ENDCHAR

STARTCHAR ldscan3
ENCODING 112
SWIDTH 565 0
DWIDTH 22 0
BBX 22 4 0 14
BITMAP
FFFFFC
FFFFFC
FFFFFC
FFFFFC
ENDCHAR

STARTCHAR ldhorizontal
ENCODING 113
SWIDTH 565 0
DWIDTH 22 0
BBX 22 4 0 8
BITMAP
FFFFFC
FFFFFC
FFFFFC
FFFFFC
ENDCHAR

STARTCHAR ldscan7
ENCODING 114
SWIDTH 565 0
DWIDTH 22 0
BBX 22 4 0 -2
BITMAP
FFFFFC
FFFFFC
FFFFFC
FFFFFC
ENDCHAR

STARTCHAR ldscan9
ENCODING 115
SWIDTH 565 0
DWIDTH 22 0
BBX 22 4 0 -9
BITMAP
FFFFFC
FFFFFC
FFFFFC
FFFFFC
ENDCHAR

STARTCHAR ldteelft
ENCODING 116
SWIDTH 565 0
DWIDTH 22 0
BBX 13 40 9 -10
BITMAP
F000
F000
F000
F000
F000
F000
F000
F000
F000
F000
F000
F000
F000
F000
F000
F000
F000
F000
FFF8
FFF8
FFF8
FFF8
F000
F000
F000
F000
F000
F000
F000
F000
F000
F000
F000
F000
F000
F000
F000
F000
F000
F000
ENDCHAR

STARTCHAR ldteert
ENCODING 117
SWIDTH 565 0
DWIDTH 22 0
BBX 13 40 0 -10
BITMAP
0078
0078
0078
0078
0078
0078
0078
0078
0078
0078
0078
0078
0078
0078
0078
0078
0078
0078
FFF8
FFF8
FFF8
FFF8
0078
0078
0078
0078
0078
0078
0078
0078
0078
0078
0078
0078
0078
0078
0078
0078
0078
0078
ENDCHAR

STARTCHAR ldteebt
ENCODING 118
SWIDTH 565 0
DWIDTH 22 0
BBX 22 22 0 8
BITMAP
007800
007800
007800
007800
007800
007800
007800
007800
007800
007800
007800
007800
007800
007800
007800
007800
007800
007800
FFFFFC
FFFFFC
FFFFFC
FFFFFC
ENDCHAR

STARTCHAR ldteetp
ENCODING 119
SWIDTH 565 0
DWIDTH 22 0
BBX 22 22 0 -10
BITMAP
FFFFFC
FFFFFC
FFFFFC
FFFFFC
007800
007800
007800
007800
007800
007800
007800
007800
007800
007800
007800
007800
007800
007800
007800
007800
007800
007800
ENDCHAR

STARTCHAR ldvertical
ENCODING 120
SWIDTH 565 0
DWIDTH 22 0
BBX 4 40 9 -10
BITMAP
F0
F0
F0
F0
F0
F0
F0
F0
F0
F0
F0
F0
F0
F0
F0
F0
F0
F0
F0
F0
F0
F0
F0
F0
F0
F0
F0
F0
F0
F0
F0
F0
F0
F0
F0
F0
F0
F0
F0
F0
ENDCHAR

STARTCHAR lessequal
ENCODING 121
SWIDTH 565 0
DWIDTH 22 0
BBX 18 21 2 0
BITMAP
000180
000F80
007F80
03FF80
0FF800
7FC000
7E0000
7E0000
7FC000
0FF800
03FF80
007F80
000F80
000180
000000
000000
000000
FFFFC0
FFFFC0
FFFFC0
FFFFC0
ENDCHAR

STARTCHAR greaterequal
ENCODING 122
SWIDTH 565 0
DWIDTH 22 0
BBX 18 21 2 0
BITMAP
600000
7C0000
7F8000
7FF000
07FC00
00FF80
001F80
001F80
00FF80
07FC00
7FF000
7F8000
7C0000
600000
000000
000000
000000
FFFFC0
FFFFC0
FFFFC0
FFFFC0
ENDCHAR

STARTCHAR pi
ENCODING 123
SWIDTH 565 0
DWIDTH 22 0
BBX 20 18 1 0
BITMAP
FFFFF0
FFFFF0
1E0F00
1E0F00
1E0E00
1E0E00
1C1E00
1C1E00
3C1E00
3C1E00
3C1C00
3C1C00
383C00
383C00
783C00
783C00
783F80
781F80
ENDCHAR

STARTCHAR notequal
ENCODING 124
SWIDTH 565 0
DWIDTH 22 0
BBX 18 16 2 2
BITMAP
001C00
001C00
FFFFC0
FFFFC0
FFFFC0
FFFFC0
00E000
01C000
01C000
038000
FFFFC0
FFFFC0
FFFFC0
FFFFC0
1C0000
1C0000
ENDCHAR

STARTCHAR sterling
ENCODING 125
SWIDTH 565 0
DWIDTH 22 0
BBX 16 22 3 0
BITMAP
03FF
0FFF
1E07
1E03
3C03
3C03
3C00
3C00
1E00
1E00
FFFC
FFFC
0F00
0F00
0F00
0E00
1E00
1C00
3F83
7FE7
F1FE
E07C
ENDCHAR

STARTCHAR periodcentered
ENCODING 126
SWIDTH 565 0
DWIDTH 22 0
BBX 8 8 7 6
BITMAP
3C
7E
FF
FF
FF
FF
7E
3C
ENDCHAR

STARTCHAR Error
ENCODING 159
SWIDTH 565 0
DWIDTH 22 0
BBX 18 37 3 -7
BITMAP
07FC00
1FFF00
3FFF80
7FFF80
7FFFC0
FC0FC0
FC07C0
F807C0
F80000
FC0000
FC0000
7E0000
7F0000
3F8000
3FC000
1FE000
0FF000
07F800
03F800
01FC00
00FC00
007C00
007C00
007C00
000000
000000
000000
000000
007800
00FC00
01FE00
01FE00
01FE00
01FE00
01FE00
00FC00
007800
ENDCHAR

STARTCHAR space
ENCODING 160
SWIDTH 565 0
DWIDTH 22 0
BBX 1 1 0 0
BITMAP
00
ENDCHAR

STARTCHAR ldradicalbt
ENCODING 161
SWIDTH 565 0
DWIDTH 22 0
BBX 13 26 0 4
BITMAP
0078
0078
0078
0078
0078
0078
0078
0078
0078
0078
0078
0078
0078
0078
1078
3878
7C78
FE78
FF78
FFF8
EFF8
47F8
03F8
01F8
00F8
0078
ENDCHAR

STARTCHAR ldradicaltp
ENCODING 162
SWIDTH 565 0
DWIDTH 22 0
BBX 13 22 9 -10
BITMAP
FFF8
FFF8
FFF8
FFF8
F000
F000
F000
F000
F000
F000
F000
F000
F000
F000
F000
F000
F000
F000
F000
F000
F000
F000
ENDCHAR

STARTCHAR ldhorizontal
ENCODING 163
SWIDTH 565 0
DWIDTH 22 0
BBX 22 4 0 8
BITMAP
FFFFFC
FFFFFC
FFFFFC
FFFFFC
ENDCHAR

STARTCHAR ldintegraltp
ENCODING 164
SWIDTH 565 0
DWIDTH 22 0
BBX 12 38 9 -10
BITMAP
1F80
7FE0
7FE0
FFF0
F8F0
F0F0
F000
F000
F000
F000
F000
F000
F000
F000
F000
F000
F000
F000
F000
F000
F000
F000
F000
F000
F000
F000
F000
F000
F000
F000
F000
F000
F000
F000
F000
F000
F000
F000
ENDCHAR

STARTCHAR ldintegralbt
ENCODING 165
SWIDTH 565 0
DWIDTH 22 0
BBX 12 38 1 -8
BITMAP
00F0
00F0
00F0
00F0
00F0
00F0
00F0
00F0
00F0
00F0
00F0
00F0
00F0
00F0
00F0
00F0
00F0
00F0
00F0
00F0
00F0
00F0
00F0
00F0
00F0
00F0
00F0
00F0
00F0
00F0
00F0
00F0
F0F0
F1F0
FFF0
7FE0
7FE0
1F80
ENDCHAR

STARTCHAR ldvertical
ENCODING 166
SWIDTH 565 0
DWIDTH 22 0
BBX 4 40 9 -10
BITMAP
F0
F0
F0
F0
F0
F0
F0
F0
F0
F0
F0
F0
F0
F0
F0
F0
F0
F0
F0
F0
F0
F0
F0
F0
F0
F0
F0
F0
F0
F0
F0
F0
F0
F0
F0
F0
F0
F0
F0
F0
ENDCHAR

STARTCHAR ldbracketlfttp
ENCODING 167
SWIDTH 565 0
DWIDTH 22 0
BBX 8 38 9 -10
BITMAP
FF
FF
F0
F0
F0
F0
F0
F0
F0
F0
F0
F0
F0
F0
F0
F0
F0
F0
F0
F0
F0
F0
F0
F0
F0
F0
F0
F0
F0
F0
F0
F0
F0
F0
F0
F0
F0
F0
ENDCHAR

STARTCHAR ldbracketlftbt
ENCODING 168
SWIDTH 565 0
DWIDTH 22 0
BBX 8 38 9 -8
BITMAP
F0
F0
F0
F0
F0
F0
F0
F0
F0
F0
F0
F0
F0
F0
F0
F0
F0
F0
F0
F0
F0
F0
F0
F0
F0
F0
F0
F0
F0
F0
F0
F0
F0
F0
F0
F0
FF
FF
ENDCHAR

STARTCHAR ldbracketrttp
ENCODING 169
SWIDTH 565 0
DWIDTH 22 0
BBX 8 36 5 -10
BITMAP
FF
FF
0F
0F
0F
0F
0F
0F
0F
0F
0F
0F
0F
0F
0F
0F
0F
0F
0F
0F
0F
0F
0F
0F
0F
0F
0F
0F
0F
0F
0F
0F
0F
0F
0F
0F
ENDCHAR

STARTCHAR ldbracketrtbt
ENCODING 170
SWIDTH 565 0
DWIDTH 22 0
BBX 8 38 5 -8
BITMAP
0F
0F
0F
0F
0F
0F
0F
0F
0F
0F
0F
0F
0F
0F
0F
0F
0F
0F
0F
0F
0F
0F
0F
0F
0F
0F
0F
0F
0F
0F
0F
0F
0F
0F
0F
0F
FF
FF
ENDCHAR

STARTCHAR ldbracelfttp
ENCODING 171
SWIDTH 565 0
DWIDTH 22 0
BBX 8 36 9 -10
BITMAP
0F
1F
3C
78
78
70
F0
F0
F0
F0
F0
F0
F0
F0
F0
F0
F0
F0
F0
F0
F0
F0
F0
F0
F0
F0
F0
F0
F0
F0
F0
F0
F0
F0
F0
F0
ENDCHAR

STARTCHAR ldbracelftbt
ENCODING 172
SWIDTH 565 0
DWIDTH 22 0
BBX 8 38 9 -8
BITMAP
F0
F0
F0
F0
F0
F0
F0
F0
F0
F0
F0
F0
F0
F0
F0
F0
F0
F0
F0
F0
F0
F0
F0
F0
F0
F0
F0
F0
F0
F0
F0
F0
70
78
78
3C
1F
0F
ENDCHAR

STARTCHAR ldbracerttp
ENCODING 173
SWIDTH 565 0
DWIDTH 22 0
BBX 8 36 5 -10
BITMAP
F0
F8
3C
1E
1E
0E
0F
0F
0F
0F
0F
0F
0F
0F
0F
0F
0F
0F
0F
0F
0F
0F
0F
0F
0F
0F
0F
0F
0F
0F
0F
0F
0F
0F
0F
0F
ENDCHAR

STARTCHAR ldbracertbt
ENCODING 174
SWIDTH 565 0
DWIDTH 22 0
BBX 8 38 5 -8
BITMAP
0F
0F
0F
0F
0F
0F
0F
0F
0F
0F
0F
0F
0F
0F
0F
0F
0F
0F
0F
0F
0F
0F
0F
0F
0F
0F
0F
0F
0F
0F
0F
0F
0E
1E
1E
3C
F8
F0
ENDCHAR

STARTCHAR ldbracelftmid
ENCODING 175
SWIDTH 565 0
DWIDTH 22 0
BBX 8 40 5 -10
BITMAP
0F
0F
0F
0F
0F
0F
0F
0F
0F
0F
0F
0F
0F
0F
0F
0F
0F
1E
1E
F0
F0
1E
1E
0F
0F
0F
0F
0F
0F
0F
0F
0F
0F
0F
0F
0F
0F
0F
0F
0F
ENDCHAR

STARTCHAR ldbracertmid
ENCODING 176
SWIDTH 565 0
DWIDTH 22 0
BBX 8 40 9 -10
BITMAP
F0
F0
F0
F0
F0
F0
F0
F0
F0
F0
F0
F0
F0
F0
F0
F0
F0
78
78
0F
0F
78
78
F0
F0
F0
F0
F0
F0
F0
F0
F0
F0
F0
F0
F0
F0
F0
F0
F0
ENDCHAR

STARTCHAR ldsigmalfttp
ENCODING 177
SWIDTH 565 0
DWIDTH 22 0
BBX 14 22 8 -10
BITMAP
FFFC
FFFC
FFFC
FFFC
7C00
3E00
3E00
1F00
0F00
0780
07C0
03C0
01E0
01F0
00F0
0078
0078
003C
003C
001C
001C
000C
ENDCHAR

STARTCHAR ldsigmalftbt
ENCODING 178
SWIDTH 565 0
DWIDTH 22 0
BBX 14 22 8 8
BITMAP
000C
001C
001C
003C
007C
0078
00F8
01F0
01E0
03E0
03C0
0780
0F80
0F00
1F00
3E00
3E00
7C00
FFFC
FFFC
FFFC
FFFC
ENDCHAR

STARTCHAR ldbackslash
ENCODING 179
SWIDTH 565 0
DWIDTH 22 0
BBX 22 40 0 -10
BITMAP
E00000
F00000
F00000
780000
780000
3C0000
3C0000
1E0000
1E0000
0F0000
0F0000
078000
078000
03C000
03C000
01E000
01E000
00F000
00F000
007800
007C00
003C00
003E00
001E00
000F00
000F00
000780
000780
0003C0
0003C0
0001E0
0001E0
0000F0
0000F0
000078
000078
00003C
00003C
00001C
00001C
ENDCHAR

STARTCHAR ldslash
ENCODING 180
SWIDTH 565 0
DWIDTH 22 0
BBX 22 40 0 -10
BITMAP
00001C
00001C
00003C
00003C
000078
000078
0000F0
0000F0
0001E0
0001E0
0003C0
0003C0
000780
000780
000F00
000F00
001E00
001E00
003C00
003C00
007800
00F800
00F000
01F000
01E000
03C000
03C000
078000
078000
0F0000
0F0000
1E0000
1E0000
3C0000
3C0000
780000
780000
F00000
F00000
E00000
ENDCHAR

STARTCHAR ldsigmarttp
ENCODING 181
SWIDTH 565 0
DWIDTH 22 0
BBX 22 10 0 2
BITMAP
FFFFFC
FFFFFC
FFFFFC
FFFFFC
00003C
00003C
00003C
00003C
00003C
00003C
ENDCHAR

STARTCHAR ldsigmartbt
ENCODING 182
SWIDTH 565 0
DWIDTH 22 0
BBX 22 10 0 8
BITMAP
00003C
00003C
00003C
00003C
00003C
00003C
FFFFFC
FFFFFC
FFFFFC
FFFFFC
ENDCHAR

STARTCHAR ldsigmamid
ENCODING 183
SWIDTH 565 0
DWIDTH 22 0
BBX 12 40 0 -10
BITMAP
C000
E000
E000
F000
F000
7800
7800
3C00
3C00
1E00
1E00
0F00
0F00
0780
0780
03C0
03C0
01E0
01E0
00F0
00F0
00F0
01F0
01E0
03E0
03C0
07C0
0780
0F80
0F00
1F00
1E00
3C00
3C00
7800
7800
F000
F000
E000
E000
ENDCHAR

STARTCHAR lessequal
ENCODING 188
SWIDTH 565 0
DWIDTH 22 0
BBX 18 21 2 0
BITMAP
000180
000F80
007F80
03FF80
0FF800
7FC000
7E0000
7E0000
7FC000
0FF800
03FF80
007F80
000F80
000180
000000
000000
000000
FFFFC0
FFFFC0
FFFFC0
FFFFC0
ENDCHAR

STARTCHAR notequal
ENCODING 189
SWIDTH 565 0
DWIDTH 22 0
BBX 18 16 2 2
BITMAP
001C00
001C00
FFFFC0
FFFFC0
FFFFC0
FFFFC0
00E000
01C000
01C000
038000
FFFFC0
FFFFC0
FFFFC0
FFFFC0
1C0000
1C0000
ENDCHAR

STARTCHAR greaterequal
ENCODING 190
SWIDTH 565 0
DWIDTH 22 0
BBX 18 21 2 0
BITMAP
600000
7C0000
7F8000
7FF000
07FC00
00FF80
001F80
001F80
00FF80
07FC00
7FF000
7F8000
7C0000
600000
000000
000000
000000
FFFFC0
FFFFC0
FFFFC0
FFFFC0
ENDCHAR

STARTCHAR integral
ENCODING 191
SWIDTH 565 0
DWIDTH 22 0
BBX 20 36 1 -8
BITMAP
001FC0
007FE0
007FF0
00FFF0
00F0F0
00F0F0
00F000
00F000
00F000
00F000
00F000
00F000
00F000
00F000
00F000
00F000
00F000
00F000
00F000
00F000
00F000
00F000
00F000
00F000
00F000
00F000
00F000
00F000
00F000
00F000
F0F000
F0F000
FFF000
FFE000
7FE000
3FC000
ENDCHAR

STARTCHAR therefore
ENCODING 192
SWIDTH 565 0
DWIDTH 22 0
BBX 20 18 1 0
BITMAP
01F800
03FC00
03FC00
03FC00
03FC00
01F800
000000
000000
000000
000000
000000
000000
7E07E0
FF0FF0
FF0FF0
FF0FF0
FF0FF0
7E07E0
ENDCHAR

STARTCHAR proportional
ENCODING 193
SWIDTH 565 0
DWIDTH 22 0
BBX 20 14 1 4
BITMAP
1F03F0
3F87F0
7FCFF0
7FDFF0
F1FC00
E0F800
E0F800
E0F800
E0F800
F1FC00
7FDFF0
7FCFF0
3F87F0
1F03F0
ENDCHAR

STARTCHAR infinity
ENCODING 194
SWIDTH 565 0
DWIDTH 22 0
BBX 22 14 0 4
BITMAP
1F03E0
3F87F0
7FCFF8
7FCFF8
F0FC3C
E0781C
E0701C
E0381C
E0781C
F0FC3C
7FEFF8
7FEFF8
3F87F0
1F03E0
ENDCHAR

STARTCHAR divide
ENCODING 195
SWIDTH 565 0
DWIDTH 22 0
BBX 16 16 3 2
BITMAP
03C0
03C0
03C0
03C0
0000
0000
FFFF
FFFF
FFFF
FFFF
0000
0000
03C0
03C0
03C0
03C0
ENDCHAR

STARTCHAR Delta
ENCODING 196
SWIDTH 565 0
DWIDTH 22 0
BBX 22 22 0 0
BITMAP
003000
003000
007800
007800
00FC00
00FC00
01FE00
01FE00
03CF00
03CF00
078780
078780
0F03C0
0F03C0
1E01E0
1E01E0
3C00F0
3C00F0
780078
780078
FFFFFC
FFFFFC
ENDCHAR

STARTCHAR gradient
ENCODING 197
SWIDTH 565 0
DWIDTH 22 0
BBX 22 22 0 0
BITMAP
FFFFFC
FFFFFC
780078
780078
3C00F0
3C00F0
1E01E0
1E01E0
0F03C0
0F03C0
078780
078780
03CF00
03CF00
01FE00
01FE00
00FC00
00FC00
007800
007800
003000
003000
ENDCHAR

STARTCHAR Phi
ENCODING 198
SWIDTH 565 0
DWIDTH 22 0
BBX 20 22 1 0
BITMAP
0FFF00
0FFF00
00F000
00F000
0FFF00
3FFFC0
78F1E0
78F1E0
F0F0F0
F0F0F0
F0F0F0
F0F0F0
F0F0F0
F0F0F0
78F1E0
78F1E0
3FFFC0
0FFF00
00F000
00F000
0FFF00
0FFF00
ENDCHAR

STARTCHAR Gamma
ENCODING 199
SWIDTH 565 0
DWIDTH 22 0
BBX 18 22 2 0
BITMAP
FFFFC0
FFFFC0
0F00C0
0F00C0
0F00C0
0F00C0
0F0000
0F0000
0F0000
0F0000
0F0000
0F0000
0F0000
0F0000
0F0000
0F0000
0F0000
0F0000
0F0000
0F0000
FFFC00
FFFC00
ENDCHAR

STARTCHAR similar
ENCODING 200
SWIDTH 565 0
DWIDTH 22 0
BBX 16 6 3 8
BITMAP
1F07
7F87
7FFF
FFFE
E1FE
E0F8
ENDCHAR

STARTCHAR approxequal
ENCODING 201
SWIDTH 565 0
DWIDTH 22 0
BBX 16 13 3 4
BITMAP
1F07
7F87
7FFF
FFFE
E1FE
E0F8
0000
0000
0000
FFFF
FFFF
FFFF
FFFF
ENDCHAR

STARTCHAR Theta
ENCODING 202
SWIDTH 565 0
DWIDTH 22 0
BBX 18 22 2 0
BITMAP
07F800
0FFC00
3E1F00
3C0F00
780780
780780
780780
F003C0
F333C0
F333C0
F3F3C0
F3F3C0
F333C0
F333C0
F003C0
780780
780780
780780
3C0F00
3E1F00
0FFC00
07F800
ENDCHAR

STARTCHAR multiply
ENCODING 203
SWIDTH 565 0
DWIDTH 22 0
BBX 16 16 3 2
BITMAP
2004
700E
F81F
7C3E
3E7C
1FF8
0FF0
07E0
07E0
0FF0
1FF8
3E7C
7C3E
F81F
700E
2004
ENDCHAR

STARTCHAR Lambda
ENCODING 204
SWIDTH 565 0
DWIDTH 22 0
BBX 22 22 0 0
BITMAP
003000
003000
007800
007800
00FC00
00FC00
01FE00
01FE00
03CF00
03CF00
078780
078780
0F03C0
0F03C0
1E01E0
1E01E0
3C00F0
3C00F0
780078
780078
FE01FC
FE01FC
ENDCHAR

STARTCHAR arrowdblboth
ENCODING 205
SWIDTH 565 0
DWIDTH 22 0
BBX 22 18 0 2
BITMAP
030300
070380
0F03C0
1E01E0
3FFFF0
3FFFF0
7FFFF8
F8007C
F0003C
F0003C
F0007C
7FFFF8
3FFFF0
3FFFF0
1E01E0
0F03C0
070380
030300
ENDCHAR

STARTCHAR arrowdblright
ENCODING 206
SWIDTH 565 0
DWIDTH 22 0
BBX 21 22 0 0
BITMAP
001800
001C00
001E00
000F00
000780
0003C0
FFFFE0
FFFFE0
FFFFF0
0000F8
000078
000078
0000F8
FFFFF0
FFFFE0
FFFFE0
0003C0
000780
000F00
001E00
001C00
001800
ENDCHAR

STARTCHAR equivalence
ENCODING 207
SWIDTH 565 0
DWIDTH 22 0
BBX 16 16 3 2
BITMAP
FFFF
FFFF
FFFF
FFFF
0000
0000
FFFF
FFFF
FFFF
FFFF
0000
0000
FFFF
FFFF
FFFF
FFFF
ENDCHAR

STARTCHAR Pi
ENCODING 208
SWIDTH 565 0
DWIDTH 22 0
BBX 18 22 2 0
BITMAP
FFFFC0
FFFFC0
3C0F00
3C0F00
3C0F00
3C0F00
3C0F00
3C0F00
3C0F00
3C0F00
3C0F00
3C0F00
3C0F00
3C0F00
3C0F00
3C0F00
3C0F00
3C0F00
3C0F00
3C0F00
FF3FC0
FF3FC0
ENDCHAR

STARTCHAR Psi
ENCODING 209
SWIDTH 565 0
DWIDTH 22 0
BBX 20 22 1 0
BITMAP
0FFF00
0FFF00
00F000
00F000
F0F0F0
F0F0F0
F0F0F0
F0F0F0
F0F0F0
F0F0F0
F0F0F0
F0F1F0
70F1E0
78F3E0
3FFFC0
0FFF00
00F000
00F000
00F000
00F000
3FFFC0
3FFFC0
ENDCHAR

STARTCHAR Sigma
ENCODING 211
SWIDTH 565 0
DWIDTH 22 0
BBX 18 22 2 0
BITMAP
FFFFC0
FFFFC0
F800C0
7C00C0
3E00C0
1F00C0
0F8000
07C000
03E000
01F000
00F800
00F800
01F000
03E000
07C000
0F8000
1F00C0
3E00C0
7C00C0
F800C0
FFFFC0
FFFFC0
ENDCHAR

STARTCHAR radical
ENCODING 214
SWIDTH 565 0
DWIDTH 22 0
BBX 21 32 1 -4
BITMAP
000078
000078
0000F8
0000F8
0000E0
0001E0
0001E0
0003C0
0003C0
000780
000780
000700
F00F00
F00F00
F01E00
F81E00
781C00
783C00
3C3C00
3C7800
1C7800
1E7000
1EF000
0EF000
0FE000
0FE000
07E000
07C000
07C000
03C000
038000
038000
ENDCHAR

STARTCHAR Omega
ENCODING 215
SWIDTH 565 0
DWIDTH 22 0
BBX 18 22 2 0
BITMAP
07F800
1FFE00
3E1F00
780780
780780
F003C0
F003C0
F003C0
F003C0
F003C0
F003C0
F003C0
780780
780780
3C0F00
1C0E00
0E1C00
0E1C00
CE1CC0
CE1CC0
FE1FC0
FE1FC0
ENDCHAR

STARTCHAR Xi
ENCODING 216
SWIDTH 565 0
DWIDTH 22 0
BBX 18 22 2 0
BITMAP
FFFFC0
FFFFC0
E001C0
E001C0
E001C0
E001C0
000000
000000
1C0E00
1C0E00
1FFE00
1FFE00
1C0E00
1C0E00
000000
000000
E001C0
E001C0
E001C0
E001C0
FFFFC0
FFFFC0
ENDCHAR

STARTCHAR Upsilon1
ENCODING 217
SWIDTH 565 0
DWIDTH 22 0
BBX 20 22 1 0
BITMAP
F801F0
F801F0
3C03C0
3C03C0
1E0780
1E0780
0F0F00
0F0F00
079E00
079E00
03FC00
03FC00
01F800
01F800
00F000
00F000
00F000
00F000
00F000
00F000
0FFF00
0FFF00
ENDCHAR

STARTCHAR propersubset
ENCODING 218
SWIDTH 565 0
DWIDTH 22 0
BBX 18 20 2 1
BITMAP
07FFC0
1FFFC0
3FFFC0
7FFFC0
7C0000
F80000
F00000
F00000
F00000
F00000
F00000
F00000
F00000
F80000
F80000
7C0000
7FFFC0
3FFFC0
1FFFC0
07FFC0
ENDCHAR

STARTCHAR propersuperset
ENCODING 219
SWIDTH 565 0
DWIDTH 22 0
BBX 18 20 2 1
BITMAP
FFF800
FFFE00
FFFF00
FFFF80
000F80
0007C0
0003C0
0003C0
0003C0
0003C0
0003C0
0003C0
0003C0
0007C0
0007C0
000F80
FFFF80
FFFF00
FFFE00
FFF800
ENDCHAR

STARTCHAR intersection
ENCODING 220
SWIDTH 565 0
DWIDTH 22 0
BBX 18 20 2 1
BITMAP
07F800
1FFE00
3FFF00
7FFF80
7C0F80
F807C0
F003C0
F003C0
F003C0
F003C0
F003C0
F003C0
F003C0
F003C0
F003C0
F003C0
F003C0
F003C0
F003C0
F003C0
ENDCHAR

STARTCHAR union
ENCODING 221
SWIDTH 565 0
DWIDTH 22 0
BBX 18 20 2 1
BITMAP
F003C0
F003C0
F003C0
F003C0
F003C0
F003C0
F003C0
F003C0
F003C0
F003C0
F003C0
F003C0
F003C0
F003C0
F807C0
7C0F80
7FFF80
3FFF00
1FFE00
07F800
ENDCHAR

STARTCHAR logicaland
ENCODING 222
SWIDTH 565 0
DWIDTH 22 0
BBX 20 20 1 1
BITMAP
006000
006000
00F000
00F000
01F800
01F800
03FC00
03FC00
079E00
079E00
0F0F00
0F0F00
1E0780
1E0780
3C03C0
3C03C0
7801E0
7801E0
F000F0
F000F0
ENDCHAR

STARTCHAR logicalor
ENCODING 223
SWIDTH 565 0
DWIDTH 22 0
BBX 20 20 1 1
BITMAP
F000F0
F000F0
7801E0
7801E0
3C03C0
3C03C0
1E0780
1E0780
0F0F00
0F0F00
079E00
079E00
03FC00
03FC00
01F800
01F800
00F000
00F000
006000
006000
ENDCHAR

STARTCHAR logicalnot
ENCODING 224
SWIDTH 565 0
DWIDTH 22 0
BBX 16 10 3 4
BITMAP
FFFF
FFFF
FFFF
FFFF
000F
000F
000F
000F
000F
000F
ENDCHAR

STARTCHAR alpha
ENCODING 225
SWIDTH 565 0
DWIDTH 22 0
BBX 20 18 1 0
BITMAP
07E070
1FF870
3E3CF0
380EE0
7807E0
7007C0
F003C0
F003C0
F00380
F00780
F00780
F00780
F00F00
F80F00
781F00
7C7B80
3FF3F0
0FC1F0
ENDCHAR

STARTCHAR beta
ENCODING 226
SWIDTH 565 0
DWIDTH 22 0
BBX 21 32 0 -8
BITMAP
003FC0
00FFF0
00F0F0
01E078
03C078
03C078
038078
078078
0700F0
0700F0
0F1FC0
0F1FC0
0E00F0
0E00F0
1E0078
1E0078
1E0078
1E0078
3E0078
3F0078
3B00F0
3BC1F0
79FFE0
787F80
700000
700000
F00000
F00000
E00000
E00000
E00000
E00000
ENDCHAR

STARTCHAR chi
ENCODING 227
SWIDTH 565 0
DWIDTH 22 0
BBX 22 26 0 -8
BITMAP
0FC00C
0FC00C
03C03C
01C03C
01E070
00E0F0
00E1E0
00F1C0
007780
007780
007E00
003E00
003C00
003C00
00FC00
00FE00
03FE00
03CE00
0F0E00
0F0F00
3C0700
3C0780
F00780
F00380
C003F0
C003F0
ENDCHAR

STARTCHAR delta
ENCODING 228
SWIDTH 565 0
DWIDTH 22 0
BBX 16 24 3 0
BITMAP
03FF
07FF
0F00
0F00
0F00
0F80
07C0
03F0
01F8
07FC
1F3E
3C1E
780F
780F
F00F
F00F
F00F
F00F
F00F
F00F
781E
781E
3FFC
0FF0
ENDCHAR

STARTCHAR epsilon
ENCODING 229
SWIDTH 565 0
DWIDTH 22 0
BBX 16 18 3 0
BITMAP
07FF
1FFF
3E00
3C00
7800
7800
F000
F000
FFFC
FFFC
F000
F000
F000
F000
7800
7C00
3FFF
0FFF
ENDCHAR

STARTCHAR phi
ENCODING 230
SWIDTH 565 0
DWIDTH 22 0
BBX 20 31 1 -7
BITMAP
001C00
001C00
001C00
001C00
003800
003800
03FF80
0FFFC0
3E39E0
3C39E0
7870F0
7870F0
F070F0
F070F0
F070F0
F070F0
F070F0
F0E0F0
F0E1E0
F0E1E0
78E3C0
78E7C0
3FFF00
0FFE00
00E000
00E000
01C000
01C000
01C000
01C000
01C000
ENDCHAR

STARTCHAR gamma
ENCODING 231
SWIDTH 565 0
DWIDTH 22 0
BBX 20 26 1 -8
BITMAP
FC01F0
FC01F0
3C03E0
3C03C0
1E0780
1E0780
0E0F00
0F0F00
0F1E00
079E00
07BC00
03BC00
03F800
03F800
01F000
01F000
03C000
03C000
078000
078000
0F0000
0F0000
1E0000
1E0000
3C0000
3C0000
ENDCHAR

STARTCHAR eta
ENCODING 232
SWIDTH 565 0
DWIDTH 22 0
BBX 18 26 2 -8
BITMAP
FC3F00
FEFF80
0FE3C0
0F83C0
0F03C0
1F03C0
1E03C0
1E0780
1C0780
3C0780
3C0780
3C0780
780F00
780F00
780F00
700F00
F00E00
F01E00
001E00
001E00
001E00
001C00
003C00
003C00
003C00
003C00
ENDCHAR

STARTCHAR iota
ENCODING 233
SWIDTH 565 0
DWIDTH 22 0
BBX 14 18 4 0
BITMAP
FF80
FF80
0F80
0F00
0F00
0F00
1F00
1E00
1E00
1E00
1E00
3E00
3C00
3C00
3C1C
3E7C
1FF0
0FC0
ENDCHAR

STARTCHAR theta
ENCODING 234
SWIDTH 565 0
DWIDTH 22 0
BBX 18 24 2 0
BITMAP
01F800
07FE00
0F0F00
1E0780
1C0780
3C03C0
3C03C0
7803C0
7803C0
7803C0
FFFFC0
FFFFC0
F003C0
F003C0
F00380
F00780
F00780
F00700
F00F00
780E00
781E00
3C3C00
1FF800
07E000
ENDCHAR

STARTCHAR kappa
ENCODING 235
SWIDTH 565 0
DWIDTH 22 0
BBX 19 18 1 0
BITMAP
7E01E0
7E03E0
1E0780
1E0F00
1E1E00
1C3C00
3C7800
3CF000
3FF000
3FF000
3E7800
787800
783C00
783C00
701E00
F01E00
F00FE0
F00FE0
ENDCHAR

STARTCHAR lambda
ENCODING 236
SWIDTH 565 0
DWIDTH 22 0
BBX 20 24 1 0
BITMAP
1FE000
1FE000
01E000
00F000
00F000
00F000
007800
007800
00F800
00FC00
01FC00
01FC00
039E00
039E00
071E00
070F00
0E0F00
0E0F00
1C0780
1C0780
3807C0
3803C0
F003F0
F003F0
ENDCHAR

STARTCHAR nu
ENCODING 238
SWIDTH 565 0
DWIDTH 22 0
BBX 17 18 3 0
BITMAP
FE0780
FE0780
1E0780
1E0780
1E0780
1E0780
1E0780
1E0700
1E0F00
1E0F00
1E1E00
1E1E00
1E3C00
1E7800
1FF000
1FE000
1FC000
1F8000
ENDCHAR

STARTCHAR partialdiff
ENCODING 239
SWIDTH 565 0
DWIDTH 22 0
BBX 16 22 3 0
BITMAP
1FE0
1FF8
00FC
003C
001E
001E
000F
000F
0FCF
3FFF
7C3F
781F
F00F
F00F
F00F
F00F
F00F
F00E
781E
7C3C
3FFC
0FF0
ENDCHAR

STARTCHAR pi
ENCODING 240
SWIDTH 565 0
DWIDTH 22 0
BBX 20 18 1 0
BITMAP
FFFFF0
FFFFF0
1E0F00
1E0F00
1E0E00
1E0E00
1C1E00
1C1E00
3C1E00
3C1E00
3C1C00
3C1C00
383C00
383C00
783C00
783C00
783F80
781F80
ENDCHAR

STARTCHAR psi
ENCODING 241
SWIDTH 565 0
DWIDTH 22 0
BBX 20 31 1 -7
BITMAP
001C00
001C00
001C00
001C00
001C00
001800
FC38F0
FC38F0
3C38F0
3C38F0
3830F0
3830F0
7870F0
7870F0
7870F0
7071E0
F071E0
F061E0
F0E3C0
F0E3C0
F0E780
78EF80
7FFE00
1FFC00
01E000
00C000
00C000
01C000
01C000
01C000
01C000
ENDCHAR

STARTCHAR rho
ENCODING 242
SWIDTH 565 0
DWIDTH 22 0
BBX 20 26 1 -8
BITMAP
01FE00
07FF80
0F87C0
0F03E0
1E01E0
1E01E0
1E00F0
3C00F0
3C00F0
3C00F0
3C00F0
3C00F0
3E01E0
3E01E0
7F03E0
7BC7C0
7BFF80
78FE00
780000
780000
700000
F00000
F00000
F00000
F00000
F00000
ENDCHAR

STARTCHAR sigma
ENCODING 243
SWIDTH 565 0
DWIDTH 22 0
BBX 20 18 1 0
BITMAP
03FFF0
0FFFF0
1F0F00
3C0700
780780
780380
7003C0
F003C0
F003C0
F003C0
F003C0
F003C0
F00780
F80780
780F00
7C1F00
3FFC00
0FF000
ENDCHAR

STARTCHAR tau
ENCODING 244
SWIDTH 565 0
DWIDTH 22 0
BBX 18 18 2 0
BITMAP
FFFFC0
FFFFC0
03C000
03C000
03C000
03C000
078000
078000
078000
078000
078000
0F0000
0F0000
0F0000
0F01C0
0F87C0
07FF00
03FE00
ENDCHAR

STARTCHAR florin
ENCODING 246
SWIDTH 565 0
DWIDTH 22 0
BBX 20 28 1 -6
BITMAP
0003F0
000FF0
000F00
001E00
001E00
001C00
001C00
003C00
07FFC0
07FFC0
007800
007800
007800
007000
007000
007000
00F000
00F000
00E000
00E000
01E000
01E000
01C000
01C000
03C000
078000
FF8000
FE0000
ENDCHAR

STARTCHAR omega
ENCODING 247
SWIDTH 565 0
DWIDTH 22 0
BBX 20 18 1 0
BITMAP
3C00F0
3C00F0
3C00F0
3C00F0
3C38F0
3838F0
7838F0
7838F0
7830F0
7870F0
F070F0
F070F0
F070E0
F0F1E0
F0F1E0
F9FBC0
7FBFC0
3E1F00
ENDCHAR

STARTCHAR xi
ENCODING 248
SWIDTH 565 0
DWIDTH 22 0
BBX 18 32 2 -8
BITMAP
3FFFC0
3FFFC0
03C000
078000
070000
0F0000
0F0000
0F0000
0F0000
078000
07FC00
07FC00
1F0000
3C0000
780000
780000
F00000
F00000
F00000
F00000
F80000
7C0000
7FFE00
1FFF00
000F00
000F00
000F00
000F00
001E00
003C00
003800
003000
ENDCHAR

STARTCHAR upsilon
ENCODING 249
SWIDTH 565 0
DWIDTH 22 0
BBX 18 18 2 0
BITMAP
3C03C0
3C03C0
3C03C0
3C03C0
7803C0
7803C0
7803C0
7803C0
F003C0
F00780
F00780
F00780
F00F00
F00F00
781E00
7C3E00
3FF800
0FF000
ENDCHAR

STARTCHAR zeta
ENCODING 250
SWIDTH 565 0
DWIDTH 22 0
BBX 18 32 2 -8
BITMAP
3FFFC0
3FFFC0
003E00
003C00
00F000
00F000
03C000
03C000
0F0000
0F0000
3C0000
3C0000
780000
780000
F00000
F00000
F00000
F00000
F00000
F80000
780000
7E0000
3FFF00
0FFF80
0007C0
0003C0
0003C0
0003C0
000780
000F00
000E00
000C00
ENDCHAR

STARTCHAR arrowleft
ENCODING 251
SWIDTH 565 0
DWIDTH 22 0
BBX 20 16 2 2
BITMAP
018000
038000
078000
0F0000
1E0000
3C0000
7FFFF0
FFFFF0
FFFFF0
7FFFF0
3C0000
1E0000
0F0000
078000
038000
018000
ENDCHAR

STARTCHAR arrowup
ENCODING 252
SWIDTH 565 0
DWIDTH 22 0
BBX 16 28 3 -3
BITMAP
0180
03C0
07E0
0FF0
1FF8
3BDC
73CE
F3CF
E3C7
03C0
03C0
03C0
03C0
03C0
03C0
03C0
03C0
03C0
03C0
03C0
03C0
03C0
03C0
03C0
03C0
03C0
03C0
03C0
ENDCHAR

STARTCHAR arrowright
ENCODING 253
SWIDTH 565 0
DWIDTH 22 0
BBX 20 16 0 2
BITMAP
001800
001C00
001E00
000F00
000780
0003C0
FFFFE0
FFFFF0
FFFFF0
FFFFE0
0003C0
000780
000F00
001E00
001C00
001800
ENDCHAR

STARTCHAR arrowdown
ENCODING 254
SWIDTH 565 0
DWIDTH 22 0
BBX 16 29 3 -5
BITMAP
03C0
03C0
03C0
03C0
03C0
03C0
03C0
03C0
03C0
03C0
03C0
03C0
03C0
03C0
03C0
03C0
03C0
03C0
03C0
03C0
E3C7
F3CF
73CE
3BDC
1FF8
0FF0
07E0
03C0
0180
ENDCHAR
ENDFONT
